<?xml version="1.0" standalone="no"?>
<!DOCTYPE svg PUBLIC "-//W3C//DTD SVG 20010904//EN"
 "http://www.w3.org/TR/2001/REC-SVG-20010904/DTD/svg10.dtd">
<svg version="1.0" xmlns="http://www.w3.org/2000/svg"
 width="720.000000pt" height="605.000000pt" viewBox="0 0 720.000000 605.000000"
 preserveAspectRatio="xMidYMid meet">

<g transform="translate(0.000000,605.000000) scale(0.100000,-0.100000)"
fill="#000000" stroke="none">
<path d="M3337 3813 c-4 -3 -7 -75 -7 -159 0 -84 -4 -155 -8 -158 -5 -3 -61
-14 -126 -25 -65 -11 -120 -22 -123 -24 -9 -10 19 -41 153 -167 113 -107 150
-136 175 -138 30 -3 125 11 284 43 39 8 151 28 250 45 99 18 185 36 190 42 7
6 -32 49 -113 126 l-123 117 -5 80 -4 79 -72 73 -72 73 -197 0 c-107 0 -199
-3 -202 -7z m421 -124 l52 -50 0 -150 0 -149 -205 0 -205 0 0 200 0 200 153 0
152 0 53 -51z"/>
<path d="M3070 3221 l0 -114 141 -136 c78 -75 147 -139 154 -143 7 -4 127 13
266 38 140 25 309 55 377 66 l122 21 0 114 c0 62 -1 113 -2 113 -8 0 -252 -44
-471 -84 -136 -25 -260 -46 -274 -46 -21 0 -58 31 -170 142 l-143 142 0 -113z
m1014 -147 c8 -22 -11 -54 -33 -54 -24 0 -34 26 -21 51 13 23 46 25 54 3z"/>
<path d="M3070 2914 l0 -109 147 -143 148 -143 40 7 c146 23 229 37 463 80
l262 47 0 109 0 110 -27 -6 c-16 -3 -82 -15 -148 -26 -66 -12 -176 -32 -245
-45 -313 -58 -320 -59 -345 -49 -14 5 -86 69 -160 143 l-135 135 0 -110z
m1013 -153 c3 -11 -2 -29 -9 -40 -25 -36 -65 0 -44 40 14 25 46 25 53 0z"/>
<path d="M2508 2269 c-41 -23 -5 -89 47 -89 26 0 45 -18 38 -36 -6 -17 -46
-18 -75 -3 -31 17 -45 -5 -17 -25 48 -33 129 -9 129 38 0 29 -17 44 -58 52
-40 8 -61 31 -38 40 9 3 32 3 51 0 36 -7 44 1 23 22 -15 15 -76 15 -100 1z"/>
<path d="M2662 2193 l3 -88 59 0 c39 0 61 4 64 13 2 8 -11 12 -47 12 -44 0
-51 3 -51 20 0 17 7 20 45 20 33 0 45 4 45 14 0 10 -14 16 -42 18 -35 2 -43 7
-43 23 0 16 8 21 43 23 28 2 42 8 42 18 0 11 -14 14 -60 14 l-61 0 3 -87z"/>
<path d="M2836 2255 c-75 -69 14 -193 105 -145 33 18 22 31 -21 24 -49 -8 -80
14 -80 56 0 42 31 63 79 55 44 -7 56 6 22 25 -33 17 -76 11 -105 -15z"/>
<path d="M2987 2273 c-4 -3 -7 -33 -7 -65 0 -49 4 -63 25 -83 29 -30 73 -33
104 -7 36 28 38 180 2 158 -6 -4 -11 -33 -11 -65 0 -59 -11 -81 -41 -81 -29 0
-49 40 -49 97 0 49 -7 63 -23 46z"/>
<path d="M3172 2193 c2 -58 7 -88 16 -91 8 -2 12 7 12 27 0 42 30 41 64 -1 19
-25 28 -30 37 -21 9 9 8 16 -5 28 -20 20 -20 29 -1 45 8 7 15 25 15 41 0 38
-33 59 -93 59 l-48 0 3 -87z m92 51 c9 -3 16 -14 16 -24 0 -20 -19 -30 -56
-30 -18 0 -24 5 -24 23 0 13 3 27 7 30 8 9 36 9 57 1z"/>
<path d="M3339 2276 c-3 -3 -4 -43 -3 -88 l3 -83 62 0 c77 0 95 22 22 27 -35
2 -49 7 -51 20 -3 13 6 17 39 20 58 4 63 26 7 30 -35 2 -43 7 -43 23 0 16 8
21 45 25 25 3 45 10 45 15 0 10 -117 20 -126 11z"/>
<path d="M3556 2261 c-33 -36 -6 -71 67 -86 20 -4 27 -11 25 -23 -4 -20 -55
-29 -71 -13 -16 16 -37 13 -37 -4 0 -34 79 -47 118 -19 25 17 29 56 9 73 -8 6
-28 14 -45 17 -40 8 -61 31 -38 40 9 3 32 3 51 0 19 -4 35 -3 35 2 0 35 -86
45 -114 13z"/>
<path d="M3700 2265 c0 -9 9 -15 25 -15 23 0 24 -3 27 -72 4 -100 26 -105 30
-6 3 72 3 73 31 76 54 6 22 27 -46 30 -55 2 -67 0 -67 -13z"/>
<path d="M3885 2257 c-64 -54 -24 -157 61 -157 49 0 84 37 84 88 0 53 -25 82
-76 89 -33 4 -45 1 -69 -20z m97 -24 c38 -34 11 -103 -42 -103 -36 0 -50 17
-50 62 0 54 52 78 92 41z"/>
<path d="M4060 2189 c0 -68 3 -90 13 -87 6 3 13 17 15 31 4 35 30 35 57 1 24
-31 84 -43 100 -20 18 24 82 26 111 4 14 -11 28 -18 31 -14 7 7 -42 132 -63
161 -22 29 -41 11 -76 -73 -32 -74 -49 -87 -68 -51 -9 16 -8 24 4 38 23 25 20
67 -6 85 -13 9 -43 16 -70 16 l-48 0 0 -91z m100 46 c20 -24 4 -45 -35 -45
-30 0 -35 3 -35 23 0 13 3 27 7 30 12 12 50 7 63 -8z m170 -57 c0 -5 -11 -8
-25 -8 -27 0 -31 10 -14 42 11 21 12 21 25 -3 7 -13 13 -27 14 -31z"/>
<path d="M4439 2267 c-40 -30 -50 -91 -23 -132 20 -30 73 -42 114 -25 26 11
30 18 30 51 0 39 0 39 -40 39 -31 0 -38 -3 -34 -15 4 -8 15 -15 26 -15 13 0
18 -6 16 -17 -2 -13 -13 -18 -38 -18 -27 0 -37 6 -50 28 -13 24 -13 30 1 55
14 24 21 27 62 25 33 -1 47 3 47 12 0 26 -81 35 -111 12z"/>
<path d="M4592 2193 l3 -88 59 0 c75 0 91 22 19 27 -36 2 -49 7 -51 21 -3 14
4 17 41 17 31 0 47 5 51 15 4 12 -3 15 -32 15 -45 0 -67 13 -59 34 5 11 19 16
53 16 72 0 51 24 -25 28 l-62 3 3 -88z"/>
</g>
</svg>
